<?xml version="1.0" encoding="utf-8"?>
<!-- Generator: Adobe Illustrator 16.0.0, SVG Export Plug-In . SVG Version: 6.00 Build 0)  -->
<!DOCTYPE svg PUBLIC "-//W3C//DTD SVG 1.1//EN" "http://www.w3.org/Graphics/SVG/1.1/DTD/svg11.dtd">
<svg version="1.1" id="Layer_1" xmlns="http://www.w3.org/2000/svg" xmlns:xlink="http://www.w3.org/1999/xlink" x="0px" y="0px"
	 width="1595.5px" height="660.253px" viewBox="10 125.247 1595.5 660.253" enable-background="new 10 125.247 1595.5 660.253"
	 xml:space="preserve">
<g>
	<path fill="#FFFFFF" d="M108.945-706.729H0v-96.128h108.945V-706.729z M108.945-100.48H0v-487.05h108.945V-100.48z"/>
	<path fill="#FFFFFF" d="M661.361-463.204c29.479-12.817,53.832-30.761,70.494-55.113s25.635-51.269,25.635-82.029
		c0-62.804-21.789-110.228-64.086-142.27c-42.296-30.761-102.536-48.705-176.876-48.705H288.385v685.714H562.67
		c74.34,0,132.017-15.381,174.313-48.705c42.297-34.606,64.086-82.029,64.086-146.114c0-41.015-11.535-78.185-35.889-107.664
		C738.265-437.57,704.939-456.796,661.361-463.204z M407.583-692.63h108.945c41.015,0,74.34,5.126,94.847,23.07
		c21.789,16.662,32.043,41.015,32.043,75.621c0,30.761-10.254,52.55-30.761,69.212c-19.226,16.662-48.705,23.071-83.312,23.071
		H407.583V-692.63z M652.39-220.961c-21.789,17.943-52.55,26.916-91.001,26.916H407.584v-217.891h149.959h5.127
		c38.451,0,67.931,11.535,89.72,32.042c21.789,19.226,30.761,48.705,30.761,82.029C684.433-265.821,674.179-237.623,652.39-220.961z
		"/>
	<path fill="#FFFFFF" d="M1024.086-413.218h269.158v-88.438h-269.158V-692.63h308.892v-98.691H904.887v686.996h428.091v-89.719
		h-308.892V-413.218z"/>
	<path fill="#FFFFFF" d="M1382.964-791.322v98.692h207.637v588.304h120.481V-692.63H1920v-98.691H1382.964z"/>
</g>
<text transform="matrix(1.0578 0 0 1 -31.0005 658.7871)" fill="#FFFFFF" font-family="'NewsGothicBT-Bold'" font-size="592.4062">KBET</text>
</svg>
